<?xml version="1.0" encoding="utf-8"?>
<!-- Generator: Adobe Illustrator 27.8.1, SVG Export Plug-In . SVG Version: 6.00 Build 0)  -->
<svg version="1.1"
	 id="svg8" xmlns:svg="http://www.w3.org/2000/svg" xmlns:inkscape="http://www.inkscape.org/namespaces/inkscape" xmlns:sodipodi="http://sodipodi.sourceforge.net/DTD/sodipodi-0.dtd" xmlns:dc="http://purl.org/dc/elements/1.1/" xmlns:cc="http://creativecommons.org/ns#" xmlns:rdf="http://www.w3.org/1999/02/22-rdf-syntax-ns#" inkscape:export-ydpi="96" inkscape:version="0.92.4 (5da689c313, 2019-01-14)"
	 xmlns="http://www.w3.org/2000/svg" xmlns:xlink="http://www.w3.org/1999/xlink" x="0px" y="0px" viewBox="0 0 600 600"
	 style="enable-background:new 0 0 600 600;" xml:space="preserve">
<style type="text/css">
	.st0{display:none;}
	.st1{fill:#04A5E5;}
	.st2{fill:#FFFFFF;}
	.st3{font-family:'Arial-BoldMT';}
	.st4{font-size:61.0129px;}
</style>
<sodipodi:namedview  bordercolor="#666666" borderlayer="true" borderopacity="1.0" id="base" inkscape:bbox-nodes="true" inkscape:bbox-paths="true" inkscape:current-layer="layer3" inkscape:cx="480.85156" inkscape:cy="231.91394" inkscape:document-units="px" inkscape:guide-bbox="true" inkscape:measure-end="214.19,687.902" inkscape:measure-start="214.19,638.808" inkscape:object-paths="true" inkscape:pageopacity="0" inkscape:pageshadow="2" inkscape:showpageshadow="false" inkscape:snap-bbox="true" inkscape:snap-bbox-edge-midpoints="true" inkscape:snap-bbox-midpoints="true" inkscape:snap-center="true" inkscape:snap-global="true" inkscape:snap-intersection-paths="true" inkscape:snap-midpoints="true" inkscape:snap-nodes="true" inkscape:snap-object-midpoints="true" inkscape:snap-others="false" inkscape:snap-page="true" inkscape:snap-smooth-nodes="true" inkscape:snap-text-baseline="false" inkscape:window-height="1027" inkscape:window-maximized="1" inkscape:window-width="1920" inkscape:window-x="-8" inkscape:window-y="-8" inkscape:zoom="0.6612482" pagecolor="#505050" showgrid="false" showguides="true" units="px">
	
		<sodipodi:guide  id="guide857" inkscape:color="rgb(0,0,255)" inkscape:label="" inkscape:locked="false" orientation="1,0" position="300,300">
		</sodipodi:guide>
</sodipodi:namedview>
<g id="layer3" transform="translate(0,262)" inkscape:groupmode="layer" inkscape:label="Bottom">
	<g id="g853" transform="matrix(0.84740152,0,0,0.84740152,-130.6247,-105.21086)">
		<g id="g4217-6-9" transform="matrix(1.4515435,0,0,1.4515435,314.55903,-95.025658)">
			<g id="layer1-6-1-2" transform="translate(0,-783.36216)" inkscape:label="Reference" class="st0">
				
					<image style="display:inline;overflow:visible;enable-background:new    ;" width="269" height="269" id="image4166-6-3" xlink:href="2D88EF93.png"  transform="matrix(1 0 0 1 1.279413e-04 793.0051)">
				</image>
			</g>
			<g id="layer2-9-1-4" inkscape:label="Trace">
				<g id="g4216-5-0">
					<path id="path4176-3-2" inkscape:connector-curvature="0" class="st1" d="M30,65.5c-9.9,0-18,8.1-18,18v50.9v50.9
						c0,9.9,8.1,18,18,18h64.3h50.9c5.4,0,10.6-2.5,14-6.7c9,4.2,18.9,6.7,29.2,6.7c0,0,0,0,0,0c37.8,0,68.9-31.1,68.9-68.9
						c0-37.8-31.1-68.9-68.9-68.9c0,0,0,0,0,0c-17.8,0-34.5,7-47,18.7c-12.5-11.7-29.2-18.7-47-18.7c0,0,0,0,0,0H30z M29.9,83.5
						h64.3c20.6,0,39.2,12.5,47.1,31.6c7.8-19.1,26.4-31.6,47.1-31.6c28.1,0,50.9,22.8,50.9,50.9c0,0,0,0,0,0
						c0,28.1-22.8,50.9-50.9,50.9c0,0,0,0,0,0c-17.6,0-33.9-9.1-43.2-24.1v24.1H94.1H29.9v-50.9V83.5z"/>
				</g>
			</g>
		</g>
		<text transform="matrix(1.1801 0 0 1.1801 218.1667 320.7036)" class="st2 st3 st4">Mod Organizer 2</text>
	</g>
</g>
</svg>
